<?xml version="1.0" encoding="UTF-8" standalone="no"?>
<!DOCTYPE svg PUBLIC "-//W3C//DTD SVG 1.1//EN"
 "http://www.w3.org/Graphics/SVG/1.1/DTD/svg11.dtd">
<!-- Generated by graphviz version 2.38.0 (20140413.2041)
 -->
<!-- Title: Configuration Pages: 1 -->
<svg width="486pt" height="368pt"
 viewBox="0.00 0.00 485.88 368.00" xmlns="http://www.w3.org/2000/svg" xmlns:xlink="http://www.w3.org/1999/xlink">
<g id="graph0" class="graph" transform="scale(1 1) rotate(0) translate(4 364)">
<title>Configuration</title>
<polygon fill="white" stroke="none" points="-4,4 -4,-364 481.883,-364 481.883,4 -4,4"/>
<!-- root -->
<g id="node1" class="node"><title>root</title>
<polygon fill="none" stroke="black" points="133.797,-336.438 163.999,-324 194.201,-336.438 194.173,-356.562 133.825,-356.562 133.797,-336.438"/>
<text text-anchor="middle" x="163.999" y="-337.8" font-family="Times,serif" font-size="14.00">root</text>
</g>
<!-- 908441592 -->
<g id="node2" class="node"><title>908441592</title>
<polygon fill="none" stroke="black" points="190.999,-252 136.999,-252 136.999,-216 190.999,-216 190.999,-252"/>
<text text-anchor="middle" x="163.999" y="-229.8" font-family="Times,serif" font-size="14.00">true</text>
</g>
<!-- root&#45;&gt;908441592 -->
<g id="edge5" class="edge"><title>root:s&#45;&gt;908441592:n</title>
<path fill="none" stroke="black" d="M163.999,-324C163.999,-295.625 163.999,-286.12 163.999,-262.021"/>
<polygon fill="black" stroke="black" points="167.499,-262 163.999,-252 160.499,-262 167.499,-262"/>
</g>
<!-- 176833592 -->
<g id="node3" class="node"><title>176833592</title>
<polygon fill="none" stroke="black" points="79.9971,-144 0.000976539,-144 0.000976539,-108 79.9971,-108 79.9971,-144"/>
<text text-anchor="middle" x="39.999" y="-121.8" font-family="Times,serif" font-size="14.00">level &gt;= 80</text>
</g>
<!-- 908441592&#45;&gt;176833592 -->
<g id="edge2" class="edge"><title>908441592:s&#45;&gt;176833592:n</title>
<path fill="none" stroke="black" d="M163.999,-216C163.999,-156.006 54.1046,-201.638 41.2263,-154.023"/>
<polygon fill="black" stroke="black" points="44.6886,-153.5 39.999,-144 37.7405,-154.351 44.6886,-153.5"/>
</g>
<!-- 1103999249 -->
<g id="node5" class="node"><title>1103999249</title>
<polygon fill="none" stroke="black" points="477.767,-144 98.2314,-144 98.2314,-108 477.767,-108 477.767,-144"/>
<text text-anchor="middle" x="287.999" y="-121.8" font-family="Times,serif" font-size="14.00">(loggingClass startsWith &quot;org.scalawag.timber&quot;) and (level &gt; 30)</text>
</g>
<!-- 908441592&#45;&gt;1103999249 -->
<g id="edge4" class="edge"><title>908441592:s&#45;&gt;1103999249:n</title>
<path fill="none" stroke="black" d="M163.999,-216C163.999,-156.006 273.893,-201.638 286.772,-154.023"/>
<polygon fill="black" stroke="black" points="290.258,-154.351 287.999,-144 283.309,-153.5 290.258,-154.351"/>
</g>
<!-- 1599768073 -->
<g id="node4" class="node"><title>1599768073</title>
<polygon fill="none" stroke="black" points="227.375,-23.5623 163.999,-36 100.623,-23.5623 100.682,-3.43769 227.316,-3.43769 227.375,-23.5623"/>
<text text-anchor="middle" x="163.999" y="-13.8" font-family="Times,serif" font-size="14.00">Console.err</text>
</g>
<!-- 176833592&#45;&gt;1599768073 -->
<g id="edge1" class="edge"><title>176833592:s&#45;&gt;1599768073:n</title>
<path fill="none" stroke="black" d="M39.999,-108C39.999,-48.0062 149.893,-93.6383 162.772,-46.0226"/>
<polygon fill="black" stroke="black" points="166.258,-46.3513 163.999,-36 159.309,-45.5004 166.258,-46.3513"/>
</g>
<!-- 1103999249&#45;&gt;1599768073 -->
<g id="edge3" class="edge"><title>1103999249:s&#45;&gt;1599768073:n</title>
<path fill="none" stroke="black" d="M287.999,-108C287.999,-48.0062 178.105,-93.6383 165.226,-46.0226"/>
<polygon fill="black" stroke="black" points="168.689,-45.5004 163.999,-36 161.74,-46.3513 168.689,-45.5004"/>
</g>
</g>
</svg>
