<?xml version="1.0" encoding="UTF-8" standalone="no"?>
<!DOCTYPE svg PUBLIC "-//W3C//DTD SVG 1.1//EN"
        "http://www.w3.org/Graphics/SVG/1.1/DTD/svg11.dtd">
<!-- Generated by graphviz version 2.38.0 (20140413.2041)
 -->
<!-- Title: Configuration Pages: 1 -->
<svg width="396pt" height="260pt"
     viewBox="0.00 0.00 395.66 260.00" xmlns="http://www.w3.org/2000/svg" xmlns:xlink="http://www.w3.org/1999/xlink">
  <g id="graph0" class="graph" transform="scale(1 1) rotate(0) translate(4 256)">
    <title>Configuration</title>
    <polygon fill="white" stroke="none" points="-4,4 -4,-256 391.663,-256 391.663,4 -4,4"/>
    <!-- root -->
    <g id="node1" class="node">
      <title>root</title>
      <polygon fill="none" stroke="black"
               points="163.629,-228.438 193.832,-216 224.034,-228.438 224.006,-248.562 163.657,-248.562 163.629,-228.438"/>
      <text text-anchor="middle" x="193.832" y="-229.8" font-family="Times,serif" font-size="14.00">root</text>
    </g>
    <!-- 895130403 -->
    <g id="node2" class="node">
      <title>895130403</title>
      <polygon fill="none" stroke="black" points="387.495,-144 0.168311,-144 0.168311,-108 387.495,-108 387.495,-144"/>
      <text text-anchor="middle" x="193.832" y="-121.8" font-family="Times,serif" font-size="14.00">(level &gt;= 80) and
        (loggingClass startsWith &quot;org.scalawag.timber&quot;)
      </text>
    </g>
    <!-- root&#45;&gt;895130403 -->
    <g id="edge2" class="edge">
      <title>root:s&#45;&gt;895130403:n</title>
      <path fill="none" stroke="black" d="M193.832,-216C193.832,-187.625 193.832,-178.12 193.832,-154.021"/>
      <polygon fill="black" stroke="black" points="197.332,-154 193.832,-144 190.332,-154 197.332,-154"/>
    </g>
    <!-- 821674707 -->
    <g id="node3" class="node">
      <title>821674707</title>
      <polygon fill="none" stroke="black"
               points="257.208,-23.5623 193.832,-36 130.455,-23.5623 130.514,-3.43769 257.149,-3.43769 257.208,-23.5623"/>
      <text text-anchor="middle" x="193.832" y="-13.8" font-family="Times,serif" font-size="14.00">Console.err</text>
    </g>
    <!-- 895130403&#45;&gt;821674707 -->
    <g id="edge1" class="edge">
      <title>895130403:s&#45;&gt;821674707:n</title>
      <path fill="none" stroke="black" d="M193.832,-108C193.832,-79.625 193.832,-70.1205 193.832,-46.0208"/>
      <polygon fill="black" stroke="black" points="197.332,-46 193.832,-36 190.332,-46 197.332,-46"/>
    </g>
  </g>
</svg>
