<?xml version="1.0" encoding="UTF-8" standalone="no"?>
<!DOCTYPE svg PUBLIC "-//W3C//DTD SVG 1.1//EN"
        "http://www.w3.org/Graphics/SVG/1.1/DTD/svg11.dtd">
<!-- Generated by graphviz version 2.38.0 (20140413.2041)
 -->
<!-- Title: Configuration Pages: 1 -->
<svg width="234pt" height="368pt"
     viewBox="0.00 0.00 233.59 368.00" xmlns="http://www.w3.org/2000/svg" xmlns:xlink="http://www.w3.org/1999/xlink">
  <g id="graph0" class="graph" transform="scale(1 1) rotate(0) translate(4 364)">
    <title>Configuration</title>
    <polygon fill="white" stroke="none" points="-4,4 -4,-364 229.59,-364 229.59,4 -4,4"/>
    <!-- root -->
    <g id="node1" class="node">
      <title>root</title>
      <polygon fill="none" stroke="black"
               points="95.2,-336.438 125.402,-324 155.605,-336.438 155.576,-356.562 95.2281,-356.562 95.2,-336.438"/>
      <text text-anchor="middle" x="125.402" y="-337.8" font-family="Times,serif" font-size="14.00">root</text>
    </g>
    <!-- 1256547397 -->
    <g id="node2" class="node">
      <title>1256547397</title>
      <polygon fill="none" stroke="black" points="152.402,-252 98.4023,-252 98.4023,-216 152.402,-216 152.402,-252"/>
      <text text-anchor="middle" x="125.402" y="-229.8" font-family="Times,serif" font-size="14.00">true</text>
    </g>
    <!-- root&#45;&gt;1256547397 -->
    <g id="edge4" class="edge">
      <title>root:s&#45;&gt;1256547397:n</title>
      <path fill="none" stroke="black" d="M125.402,-324C125.402,-295.625 125.402,-286.12 125.402,-262.021"/>
      <polygon fill="black" stroke="black" points="128.902,-262 125.402,-252 121.902,-262 128.902,-262"/>
    </g>
    <!-- 941221502 -->
    <g id="node3" class="node">
      <title>941221502</title>
      <polygon fill="none" stroke="black" points="110.31,-144 18.4942,-144 18.4942,-108 110.31,-108 110.31,-144"/>
      <text text-anchor="middle" x="64.4023" y="-121.8" font-family="Times,serif" font-size="14.00">tagged(Alert)</text>
    </g>
    <!-- 1256547397&#45;&gt;941221502 -->
    <g id="edge2" class="edge">
      <title>1256547397:s&#45;&gt;941221502:n</title>
      <path fill="none" stroke="black" d="M125.402,-216C125.402,-177.828 74.8709,-184.24 65.791,-154.079"/>
      <polygon fill="black" stroke="black" points="69.2345,-153.429 64.4023,-144 62.3001,-154.384 69.2345,-153.429"/>
    </g>
    <!-- 1362504980 -->
    <g id="node5" class="node">
      <title>1362504980</title>
      <polygon fill="none" stroke="black"
               points="225.779,-23.5623 162.402,-36 99.0259,-23.5623 99.085,-3.43769 225.72,-3.43769 225.779,-23.5623"/>
      <text text-anchor="middle" x="162.402" y="-13.8" font-family="Times,serif" font-size="14.00">Console.err</text>
    </g>
    <!-- 1256547397&#45;&gt;1362504980 -->
    <g id="edge3" class="edge">
      <title>1256547397:s&#45;&gt;1362504980:n</title>
      <path fill="none" stroke="black" d="M125.402,-216C125.402,-137.837 159.291,-119.224 162.203,-46.1783"/>
      <polygon fill="black" stroke="black" points="165.706,-46.0666 162.402,-36 158.707,-45.9296 165.706,-46.0666"/>
    </g>
    <!-- 394258259 -->
    <g id="node4" class="node">
      <title>394258259</title>
      <polygon fill="none" stroke="black"
               points="80.7072,-23.5623 40.4023,-36 0.0974521,-23.5623 0.135072,-3.43769 80.6696,-3.43769 80.7072,-23.5623"/>
      <text text-anchor="middle" x="40.4023" y="-13.8" font-family="Times,serif" font-size="14.00">alerter</text>
    </g>
    <!-- 941221502&#45;&gt;394258259 -->
    <g id="edge1" class="edge">
      <title>941221502:s&#45;&gt;394258259:n</title>
      <path fill="none" stroke="black" d="M64.4023,-108C64.4023,-77.9584 45.3652,-71.0729 41.2008,-46.0967"/>
      <polygon fill="black" stroke="black" points="44.6799,-45.6929 40.4023,-36 37.7017,-46.2448 44.6799,-45.6929"/>
    </g>
  </g>
</svg>
