<?xml version="1.0" encoding="UTF-8" standalone="no"?>
<!DOCTYPE svg PUBLIC "-//W3C//DTD SVG 1.1//EN"
 "http://www.w3.org/Graphics/SVG/1.1/DTD/svg11.dtd">
<!-- Generated by graphviz version 2.38.0 (20140413.2041)
 -->
<!-- Title: Configuration Pages: 1 -->
<svg width="134pt" height="260pt"
 viewBox="0.00 0.00 134.38 260.00" xmlns="http://www.w3.org/2000/svg" xmlns:xlink="http://www.w3.org/1999/xlink">
<g id="graph0" class="graph" transform="scale(1 1) rotate(0) translate(4 256)">
<title>Configuration</title>
<polygon fill="white" stroke="none" points="-4,4 -4,-256 130.376,-256 130.376,4 -4,4"/>
<!-- root -->
<g id="node1" class="node"><title>root</title>
<polygon fill="none" stroke="black" points="32.9856,-228.438 63.1879,-216 93.3903,-228.438 93.3621,-248.562 33.0138,-248.562 32.9856,-228.438"/>
<text text-anchor="middle" x="63.1879" y="-229.8" font-family="Times,serif" font-size="14.00">root</text>
</g>
<!-- 178818797 -->
<g id="node2" class="node"><title>178818797</title>
<polygon fill="none" stroke="black" points="103.186,-144 23.1899,-144 23.1899,-108 103.186,-108 103.186,-144"/>
<text text-anchor="middle" x="63.1879" y="-121.8" font-family="Times,serif" font-size="14.00">level &gt;= 50</text>
</g>
<!-- root&#45;&gt;178818797 -->
<g id="edge2" class="edge"><title>root:s&#45;&gt;178818797:n</title>
<path fill="none" stroke="black" d="M63.1879,-216C63.1879,-187.625 63.1879,-178.12 63.1879,-154.021"/>
<polygon fill="black" stroke="black" points="66.688,-154 63.1879,-144 59.688,-154 66.688,-154"/>
</g>
<!-- 53441863 -->
<g id="node3" class="node"><title>53441863</title>
<polygon fill="none" stroke="black" points="126.564,-23.5623 63.1879,-36 -0.188505,-23.5623 -0.129351,-3.43769 126.505,-3.43769 126.564,-23.5623"/>
<text text-anchor="middle" x="63.1879" y="-13.8" font-family="Times,serif" font-size="14.00">Console.err</text>
</g>
<!-- 178818797&#45;&gt;53441863 -->
<g id="edge1" class="edge"><title>178818797:s&#45;&gt;53441863:n</title>
<path fill="none" stroke="black" d="M63.1879,-108C63.1879,-79.625 63.1879,-70.1205 63.1879,-46.0208"/>
<polygon fill="black" stroke="black" points="66.688,-46 63.1879,-36 59.688,-46 66.688,-46"/>
</g>
</g>
</svg>
