<?xml version="1.0" encoding="UTF-8" standalone="no"?>
<!DOCTYPE svg PUBLIC "-//W3C//DTD SVG 1.1//EN"
        "http://www.w3.org/Graphics/SVG/1.1/DTD/svg11.dtd">
<!-- Generated by graphviz version 2.38.0 (20140413.2041)
 -->
<!-- Title: Configuration Pages: 1 -->
<svg width="387pt" height="260pt"
     viewBox="0.00 0.00 387.11 260.00" xmlns="http://www.w3.org/2000/svg" xmlns:xlink="http://www.w3.org/1999/xlink">
  <g id="graph0" class="graph" transform="scale(1 1) rotate(0) translate(4 256)">
    <title>Configuration</title>
    <polygon fill="white" stroke="none" points="-4,4 -4,-256 383.111,-256 383.111,4 -4,4"/>
    <!-- root -->
    <g id="node1" class="node">
      <title>root</title>
      <polygon fill="none" stroke="black"
               points="159.353,-228.438 189.556,-216 219.758,-228.438 219.73,-248.562 159.381,-248.562 159.353,-228.438"/>
      <text text-anchor="middle" x="189.556" y="-229.8" font-family="Times,serif" font-size="14.00">root</text>
    </g>
    <!-- 1058993232 -->
    <g id="node2" class="node">
      <title>1058993232</title>
      <polygon fill="none" stroke="black"
               points="379.167,-144 -0.0556804,-144 -0.0556804,-108 379.167,-108 379.167,-144"/>
      <text text-anchor="middle" x="189.556" y="-121.8" font-family="Times,serif" font-size="14.00">(level &gt;= 80) or
        (loggingClass startsWith &quot;org.scalawag.timber&quot;)
      </text>
    </g>
    <!-- root&#45;&gt;1058993232 -->
    <g id="edge2" class="edge">
      <title>root:s&#45;&gt;1058993232:n</title>
      <path fill="none" stroke="black" d="M189.556,-216C189.556,-187.625 189.556,-178.12 189.556,-154.021"/>
      <polygon fill="black" stroke="black" points="193.056,-154 189.556,-144 186.056,-154 193.056,-154"/>
    </g>
    <!-- 424137243 -->
    <g id="node3" class="node">
      <title>424137243</title>
      <polygon fill="none" stroke="black"
               points="252.932,-23.5623 189.556,-36 126.179,-23.5623 126.238,-3.43769 252.873,-3.43769 252.932,-23.5623"/>
      <text text-anchor="middle" x="189.556" y="-13.8" font-family="Times,serif" font-size="14.00">Console.err</text>
    </g>
    <!-- 1058993232&#45;&gt;424137243 -->
    <g id="edge1" class="edge">
      <title>1058993232:s&#45;&gt;424137243:n</title>
      <path fill="none" stroke="black" d="M189.556,-108C189.556,-79.625 189.556,-70.1205 189.556,-46.0208"/>
      <polygon fill="black" stroke="black" points="193.056,-46 189.556,-36 186.056,-46 193.056,-46"/>
    </g>
  </g>
</svg>
