<?xml version="1.0" encoding="UTF-8" standalone="no"?>
<!DOCTYPE svg PUBLIC "-//W3C//DTD SVG 1.1//EN"
 "http://www.w3.org/Graphics/SVG/1.1/DTD/svg11.dtd">
<!-- Generated by graphviz version 2.38.0 (20140413.2041)
 -->
<!-- Title: Configuration Pages: 1 -->
<svg width="286pt" height="368pt"
 viewBox="0.00 0.00 285.80 368.00" xmlns="http://www.w3.org/2000/svg" xmlns:xlink="http://www.w3.org/1999/xlink">
<g id="graph0" class="graph" transform="scale(1 1) rotate(0) translate(4 364)">
<title>Configuration</title>
<polygon fill="white" stroke="none" points="-4,4 -4,-364 281.803,-364 281.803,4 -4,4"/>
<!-- root -->
<g id="node1" class="node"><title>root</title>
<polygon fill="none" stroke="black" points="108.699,-336.438 138.901,-324 169.104,-336.438 169.076,-356.562 108.727,-356.562 108.699,-336.438"/>
<text text-anchor="middle" x="138.901" y="-337.8" font-family="Times,serif" font-size="14.00">root</text>
</g>
<!-- 339883771 -->
<g id="node2" class="node"><title>339883771</title>
<polygon fill="none" stroke="black" points="178.899,-252 98.9033,-252 98.9033,-216 178.899,-216 178.899,-252"/>
<text text-anchor="middle" x="138.901" y="-229.8" font-family="Times,serif" font-size="14.00">level &gt;= 80</text>
</g>
<!-- root&#45;&gt;339883771 -->
<g id="edge3" class="edge"><title>root:s&#45;&gt;339883771:n</title>
<path fill="none" stroke="black" d="M138.901,-324C138.901,-295.625 138.901,-286.12 138.901,-262.021"/>
<polygon fill="black" stroke="black" points="142.401,-262 138.901,-252 135.401,-262 142.401,-262"/>
</g>
<!-- 437585546 -->
<g id="node3" class="node"><title>437585546</title>
<polygon fill="none" stroke="black" points="277.704,-144 0.0985628,-144 0.0985628,-108 277.704,-108 277.704,-144"/>
<text text-anchor="middle" x="138.901" y="-121.8" font-family="Times,serif" font-size="14.00">loggingClass startsWith &quot;org.scalawag.timber&quot;</text>
</g>
<!-- 339883771&#45;&gt;437585546 -->
<g id="edge2" class="edge"><title>339883771:s&#45;&gt;437585546:n</title>
<path fill="none" stroke="black" d="M138.901,-216C138.901,-187.625 138.901,-178.12 138.901,-154.021"/>
<polygon fill="black" stroke="black" points="142.401,-154 138.901,-144 135.401,-154 142.401,-154"/>
</g>
<!-- 875259228 -->
<g id="node4" class="node"><title>875259228</title>
<polygon fill="none" stroke="black" points="202.278,-23.5623 138.901,-36 75.5249,-23.5623 75.5841,-3.43769 202.219,-3.43769 202.278,-23.5623"/>
<text text-anchor="middle" x="138.901" y="-13.8" font-family="Times,serif" font-size="14.00">Console.err</text>
</g>
<!-- 437585546&#45;&gt;875259228 -->
<g id="edge1" class="edge"><title>437585546:s&#45;&gt;875259228:n</title>
<path fill="none" stroke="black" d="M138.901,-108C138.901,-79.625 138.901,-70.1205 138.901,-46.0208"/>
<polygon fill="black" stroke="black" points="142.401,-46 138.901,-36 135.401,-46 142.401,-46"/>
</g>
</g>
</svg>
