<?xml version="1.0" encoding="UTF-8" standalone="no"?>
<!DOCTYPE svg PUBLIC "-//W3C//DTD SVG 1.1//EN"
        "http://www.w3.org/Graphics/SVG/1.1/DTD/svg11.dtd">
<!-- Generated by graphviz version 2.38.0 (20140413.2041)
 -->
<!-- Title: Configuration Pages: 1 -->
<svg width="360pt" height="584pt"
     viewBox="0.00 0.00 360.33 584.00" xmlns="http://www.w3.org/2000/svg" xmlns:xlink="http://www.w3.org/1999/xlink">
  <g id="graph0" class="graph" transform="scale(1 1) rotate(0) translate(4 580)">
    <title>Configuration</title>
    <polygon fill="white" stroke="none" points="-4,4 -4,-580 356.326,-580 356.326,4 -4,4"/>
    <!-- root -->
    <g id="node1" class="node">
      <title>root</title>
      <polygon fill="none" stroke="black"
               points="64.6338,-552.438 94.8362,-540 125.039,-552.438 125.01,-572.562 64.662,-572.562 64.6338,-552.438"/>
      <text text-anchor="middle" x="94.8362" y="-553.8" font-family="Times,serif" font-size="14.00">root</text>
    </g>
    <!-- 2068161073 -->
    <g id="node2" class="node">
      <title>2068161073</title>
      <polygon fill="none" stroke="black" points="121.836,-468 67.8362,-468 67.8362,-432 121.836,-432 121.836,-468"/>
      <text text-anchor="middle" x="94.8362" y="-445.8" font-family="Times,serif" font-size="14.00">true</text>
    </g>
    <!-- root&#45;&gt;2068161073 -->
    <g id="edge10" class="edge">
      <title>root:s&#45;&gt;2068161073:n</title>
      <path fill="none" stroke="black" d="M94.8362,-540C94.8362,-511.625 94.8362,-502.12 94.8362,-478.021"/>
      <polygon fill="black" stroke="black" points="98.3363,-478 94.8362,-468 91.3363,-478 98.3363,-478"/>
    </g>
    <!-- 1676252695 -->
    <g id="node3" class="node">
      <title>1676252695</title>
      <polygon fill="none" stroke="black" points="78.9388,-360 6.73358,-360 6.73358,-324 78.9388,-324 78.9388,-360"/>
      <text text-anchor="middle" x="42.8362" y="-337.8" font-family="Times,serif" font-size="14.00">level &gt; 80</text>
    </g>
    <!-- 2068161073&#45;&gt;1676252695 -->
    <g id="edge2" class="edge">
      <title>2068161073:s&#45;&gt;1676252695:n</title>
      <path fill="none" stroke="black" d="M94.8362,-432C94.8362,-396.228 52.1292,-398.579 44.1216,-369.954"/>
      <polygon fill="black" stroke="black" points="47.5881,-369.469 42.8362,-360 40.6458,-370.366 47.5881,-369.469"/>
    </g>
    <!-- 215330807 -->
    <g id="node5" class="node">
      <title>215330807</title>
      <polygon fill="none" stroke="black" points="196.653,-360 97.0193,-360 97.0193,-324 196.653,-324 196.653,-360"/>
      <text text-anchor="middle" x="146.836" y="-337.8" font-family="Times,serif" font-size="14.00">not(level &gt; 80)
      </text>
    </g>
    <!-- 2068161073&#45;&gt;215330807 -->
    <g id="edge9" class="edge">
      <title>2068161073:s&#45;&gt;215330807:n</title>
      <path fill="none" stroke="black" d="M94.8362,-432C94.8362,-396.228 137.543,-398.579 145.551,-369.954"/>
      <polygon fill="black" stroke="black" points="149.027,-370.366 146.836,-360 142.084,-369.469 149.027,-370.366"/>
    </g>
    <!-- 1159122258 -->
    <g id="node4" class="node">
      <title>1159122258</title>
      <polygon fill="none" stroke="black"
               points="85.5092,-23.5623 42.8362,-36 0.16318,-23.5623 0.203011,-3.43769 85.4694,-3.43769 85.5092,-23.5623"/>
      <text text-anchor="middle" x="42.8362" y="-13.8" font-family="Times,serif" font-size="14.00">critical</text>
    </g>
    <!-- 1676252695&#45;&gt;1159122258 -->
    <g id="edge1" class="edge">
      <title>1676252695:s&#45;&gt;1159122258:n</title>
      <path fill="none" stroke="black" d="M42.8362,-324C42.8362,-199.5 42.8362,-165.822 42.8362,-46.2886"/>
      <polygon fill="black" stroke="black" points="46.3363,-46 42.8362,-36 39.3363,-46 46.3363,-46"/>
    </g>
    <!-- 1524088950 -->
    <g id="node6" class="node">
      <title>1524088950</title>
      <polygon fill="none" stroke="black" points="180.939,-252 108.734,-252 108.734,-216 180.939,-216 180.939,-252"/>
      <text text-anchor="middle" x="144.836" y="-229.8" font-family="Times,serif" font-size="14.00">level &gt; 20</text>
    </g>
    <!-- 215330807&#45;&gt;1524088950 -->
    <g id="edge4" class="edge">
      <title>215330807:s&#45;&gt;1524088950:n</title>
      <path fill="none" stroke="black" d="M146.836,-324C146.836,-295.614 145.264,-286.128 144.907,-262.024"/>
      <polygon fill="black" stroke="black" points="148.407,-261.975 144.836,-252 141.407,-262.025 148.407,-261.975"/>
    </g>
    <!-- 112100286 -->
    <g id="node8" class="node">
      <title>112100286</title>
      <polygon fill="none" stroke="black" points="298.653,-252 199.019,-252 199.019,-216 298.653,-216 298.653,-252"/>
      <text text-anchor="middle" x="248.836" y="-229.8" font-family="Times,serif" font-size="14.00">not(level &gt; 20)
      </text>
    </g>
    <!-- 215330807&#45;&gt;112100286 -->
    <g id="edge8" class="edge">
      <title>215330807:s&#45;&gt;112100286:n</title>
      <path fill="none" stroke="black" d="M146.836,-324C146.836,-272.304 235.368,-302.602 247.471,-262.116"/>
      <polygon fill="black" stroke="black" points="250.968,-262.378 248.836,-252 244.03,-261.442 250.968,-262.378"/>
    </g>
    <!-- 1965141013 -->
    <g id="node7" class="node">
      <title>1965141013</title>
      <polygon fill="none" stroke="black"
               points="185.194,-23.5623 144.836,-36 104.478,-23.5623 104.516,-3.43769 185.157,-3.43769 185.194,-23.5623"/>
      <text text-anchor="middle" x="144.836" y="-13.8" font-family="Times,serif" font-size="14.00">logfile</text>
    </g>
    <!-- 1524088950&#45;&gt;1965141013 -->
    <g id="edge3" class="edge">
      <title>1524088950:s&#45;&gt;1965141013:n</title>
      <path fill="none" stroke="black" d="M144.836,-216C144.836,-139.594 144.836,-117.918 144.836,-46.4289"/>
      <polygon fill="black" stroke="black" points="148.336,-46 144.836,-36 141.336,-46 148.336,-46"/>
    </g>
    <!-- 656748171 -->
    <g id="node9" class="node">
      <title>656748171</title>
      <polygon fill="none" stroke="black" points="269.836,-144 215.836,-144 215.836,-108 269.836,-108 269.836,-144"/>
      <text text-anchor="middle" x="242.836" y="-121.8" font-family="Times,serif" font-size="14.00">true</text>
    </g>
    <!-- 112100286&#45;&gt;656748171 -->
    <g id="edge6" class="edge">
      <title>112100286:s&#45;&gt;656748171:n</title>
      <path fill="none" stroke="black" d="M248.836,-216C248.836,-187.527 244.119,-178.185 243.05,-154.047"/>
      <polygon fill="black" stroke="black" points="246.548,-153.923 242.836,-144 239.55,-154.072 246.548,-153.923"/>
    </g>
    <!-- 1001177866 -->
    <g id="node11" class="node">
      <title>1001177866</title>
      <polygon fill="none" stroke="black" points="352.316,-144 287.357,-144 287.357,-108 352.316,-108 352.316,-144"/>
      <text text-anchor="middle" x="319.836" y="-121.8" font-family="Times,serif" font-size="14.00">not(true)</text>
    </g>
    <!-- 112100286&#45;&gt;1001177866 -->
    <g id="edge7" class="edge">
      <title>112100286:s&#45;&gt;1001177866:n</title>
      <path fill="none" stroke="black" d="M248.836,-216C248.836,-174.921 308.157,-186.332 318.353,-154.274"/>
      <polygon fill="black" stroke="black" points="321.872,-154.397 319.836,-144 314.943,-153.397 321.872,-154.397"/>
    </g>
    <!-- 1133878889 -->
    <g id="node10" class="node">
      <title>1133878889</title>
      <polygon fill="none" stroke="black"
               points="276.788,-23.5623 242.836,-36 208.884,-23.5623 208.916,-3.43769 276.756,-3.43769 276.788,-23.5623"/>
      <text text-anchor="middle" x="242.836" y="-13.8" font-family="Times,serif" font-size="14.00">trace</text>
    </g>
    <!-- 656748171&#45;&gt;1133878889 -->
    <g id="edge5" class="edge">
      <title>656748171:s&#45;&gt;1133878889:n</title>
      <path fill="none" stroke="black" d="M242.836,-108C242.836,-79.625 242.836,-70.1205 242.836,-46.0208"/>
      <polygon fill="black" stroke="black" points="246.336,-46 242.836,-36 239.336,-46 246.336,-46"/>
    </g>
  </g>
</svg>
