<?xml version="1.0" encoding="UTF-8" standalone="no"?>
<!DOCTYPE svg PUBLIC "-//W3C//DTD SVG 1.1//EN"
 "http://www.w3.org/Graphics/SVG/1.1/DTD/svg11.dtd">
<!-- Generated by graphviz version 2.38.0 (20140413.2041)
 -->
<!-- Title: Configuration Pages: 1 -->
<svg width="695pt" height="692pt"
 viewBox="0.00 0.00 695.39 692.00" xmlns="http://www.w3.org/2000/svg" xmlns:xlink="http://www.w3.org/1999/xlink">
<g id="graph0" class="graph" transform="scale(1 1) rotate(0) translate(4 688)">
<title>Configuration</title>
<polygon fill="white" stroke="none" points="-4,4 -4,-688 691.387,-688 691.387,4 -4,4"/>
<!-- root -->
<g id="node1" class="node"><title>root</title>
<polygon fill="none" stroke="black" points="262.699,-660.438 292.901,-648 323.104,-660.438 323.076,-680.562 262.727,-680.562 262.699,-660.438"/>
<text text-anchor="middle" x="292.901" y="-661.8" font-family="Times,serif" font-size="14.00">root</text>
</g>
<!-- 2134381666 -->
<g id="node2" class="node"><title>2134381666</title>
<polygon fill="none" stroke="black" points="319.901,-576 265.901,-576 265.901,-540 319.901,-540 319.901,-576"/>
<text text-anchor="middle" x="292.901" y="-553.8" font-family="Times,serif" font-size="14.00">true</text>
</g>
<!-- root&#45;&gt;2134381666 -->
<g id="edge13" class="edge"><title>root:s&#45;&gt;2134381666:n</title>
<path fill="none" stroke="black" d="M292.901,-648C292.901,-619.625 292.901,-610.12 292.901,-586.021"/>
<polygon fill="black" stroke="black" points="296.401,-586 292.901,-576 289.401,-586 296.401,-586"/>
</g>
<!-- 993241386 -->
<g id="node3" class="node"><title>993241386</title>
<polygon fill="none" stroke="black" points="277.704,-468 0.0985628,-468 0.0985628,-432 277.704,-432 277.704,-468"/>
<text text-anchor="middle" x="138.901" y="-445.8" font-family="Times,serif" font-size="14.00">loggingClass startsWith &quot;org.scalawag.timber&quot;</text>
</g>
<!-- 2134381666&#45;&gt;993241386 -->
<g id="edge3" class="edge"><title>2134381666:s&#45;&gt;993241386:n</title>
<path fill="none" stroke="black" d="M292.901,-540C292.901,-468.134 153.573,-536.199 139.967,-477.997"/>
<polygon fill="black" stroke="black" points="143.442,-477.573 138.901,-468 136.481,-478.315 143.442,-477.573"/>
</g>
<!-- 1115257650 -->
<g id="node6" class="node"><title>1115257650</title>
<polygon fill="none" stroke="black" points="600.418,-468 295.385,-468 295.385,-432 600.418,-432 600.418,-468"/>
<text text-anchor="middle" x="447.901" y="-445.8" font-family="Times,serif" font-size="14.00">not(loggingClass startsWith &quot;org.scalawag.timber&quot;)</text>
</g>
<!-- 2134381666&#45;&gt;1115257650 -->
<g id="edge12" class="edge"><title>2134381666:s&#45;&gt;1115257650:n</title>
<path fill="none" stroke="black" d="M292.901,-540C292.901,-467.751 433.134,-536.526 446.829,-478.048"/>
<polygon fill="black" stroke="black" points="450.32,-478.315 447.901,-468 443.36,-477.572 450.32,-478.315"/>
</g>
<!-- 428816879 -->
<g id="node4" class="node"><title>428816879</title>
<polygon fill="none" stroke="black" points="196.901,-144 142.901,-144 142.901,-108 196.901,-108 196.901,-144"/>
<text text-anchor="middle" x="169.901" y="-121.8" font-family="Times,serif" font-size="14.00">true</text>
</g>
<!-- 993241386&#45;&gt;428816879 -->
<g id="edge2" class="edge"><title>993241386:s&#45;&gt;428816879:n</title>
<path fill="none" stroke="black" d="M138.901,-432C138.901,-306.781 168.229,-274.482 169.833,-154.344"/>
<polygon fill="black" stroke="black" points="173.335,-154.023 169.901,-144 166.335,-153.977 173.335,-154.023"/>
</g>
<!-- 2111695855 -->
<g id="node5" class="node"><title>2111695855</title>
<polygon fill="none" stroke="black" points="349.278,-23.5623 285.901,-36 222.525,-23.5623 222.584,-3.43769 349.219,-3.43769 349.278,-23.5623"/>
<text text-anchor="middle" x="285.901" y="-13.8" font-family="Times,serif" font-size="14.00">Console.err</text>
</g>
<!-- 428816879&#45;&gt;2111695855 -->
<g id="edge1" class="edge"><title>428816879:s&#45;&gt;2111695855:n</title>
<path fill="none" stroke="black" d="M169.901,-108C169.901,-51.1132 271.854,-90.9393 284.599,-46.1416"/>
<polygon fill="black" stroke="black" points="288.099,-46.3645 285.901,-36 281.156,-45.4725 288.099,-46.3645"/>
</g>
<!-- 1680208046 -->
<g id="node7" class="node"><title>1680208046</title>
<polygon fill="none" stroke="black" points="404.659,-360 167.143,-360 167.143,-324 404.659,-324 404.659,-360"/>
<text text-anchor="middle" x="285.901" y="-337.8" font-family="Times,serif" font-size="14.00">loggingClass startsWith &quot;org.scalawag&quot;</text>
</g>
<!-- 1115257650&#45;&gt;1680208046 -->
<g id="edge6" class="edge"><title>1115257650:s&#45;&gt;1680208046:n</title>
<path fill="none" stroke="black" d="M447.901,-432C447.901,-356.902 300.733,-431.129 286.936,-370.03"/>
<polygon fill="black" stroke="black" points="290.409,-369.588 285.901,-360 283.446,-370.306 290.409,-369.588"/>
</g>
<!-- 378928232 -->
<g id="node9" class="node"><title>378928232</title>
<polygon fill="none" stroke="black" points="687.373,-360 422.43,-360 422.43,-324 687.373,-324 687.373,-360"/>
<text text-anchor="middle" x="554.901" y="-337.8" font-family="Times,serif" font-size="14.00">not(loggingClass startsWith &quot;org.scalawag&quot;)</text>
</g>
<!-- 1115257650&#45;&gt;378928232 -->
<g id="edge11" class="edge"><title>1115257650:s&#45;&gt;378928232:n</title>
<path fill="none" stroke="black" d="M447.901,-432C447.901,-378.487 541.162,-412.097 553.548,-370.155"/>
<polygon fill="black" stroke="black" points="557.05,-370.375 554.901,-360 550.111,-369.45 557.05,-370.375"/>
</g>
<!-- 75890052 -->
<g id="node8" class="node"><title>75890052</title>
<polygon fill="none" stroke="black" points="325.899,-144 245.903,-144 245.903,-108 325.899,-108 325.899,-144"/>
<text text-anchor="middle" x="285.901" y="-121.8" font-family="Times,serif" font-size="14.00">level &gt;= 50</text>
</g>
<!-- 1680208046&#45;&gt;75890052 -->
<g id="edge5" class="edge"><title>1680208046:s&#45;&gt;75890052:n</title>
<path fill="none" stroke="black" d="M285.901,-324C285.901,-247.594 285.901,-225.918 285.901,-154.429"/>
<polygon fill="black" stroke="black" points="289.401,-154 285.901,-144 282.401,-154 289.401,-154"/>
</g>
<!-- 75890052&#45;&gt;2111695855 -->
<g id="edge4" class="edge"><title>75890052:s&#45;&gt;2111695855:n</title>
<path fill="none" stroke="black" d="M285.901,-108C285.901,-79.625 285.901,-70.1205 285.901,-46.0208"/>
<polygon fill="black" stroke="black" points="289.401,-46 285.901,-36 282.401,-46 289.401,-46"/>
</g>
<!-- 532460899 -->
<g id="node10" class="node"><title>532460899</title>
<polygon fill="none" stroke="black" points="457.901,-252 403.901,-252 403.901,-216 457.901,-216 457.901,-252"/>
<text text-anchor="middle" x="430.901" y="-229.8" font-family="Times,serif" font-size="14.00">true</text>
</g>
<!-- 378928232&#45;&gt;532460899 -->
<g id="edge9" class="edge"><title>378928232:s&#45;&gt;532460899:n</title>
<path fill="none" stroke="black" d="M554.901,-324C554.901,-264.006 445.007,-309.638 432.129,-262.023"/>
<polygon fill="black" stroke="black" points="435.591,-261.5 430.901,-252 428.643,-262.351 435.591,-261.5"/>
</g>
<!-- 2140481641 -->
<g id="node12" class="node"><title>2140481641</title>
<polygon fill="none" stroke="black" points="587.381,-252 522.422,-252 522.422,-216 587.381,-216 587.381,-252"/>
<text text-anchor="middle" x="554.901" y="-229.8" font-family="Times,serif" font-size="14.00">not(true)</text>
</g>
<!-- 378928232&#45;&gt;2140481641 -->
<g id="edge10" class="edge"><title>378928232:s&#45;&gt;2140481641:n</title>
<path fill="none" stroke="black" d="M554.901,-324C554.901,-295.625 554.901,-286.12 554.901,-262.021"/>
<polygon fill="black" stroke="black" points="558.401,-262 554.901,-252 551.401,-262 558.401,-262"/>
</g>
<!-- 1415022266 -->
<g id="node11" class="node"><title>1415022266</title>
<polygon fill="none" stroke="black" points="447.899,-144 367.903,-144 367.903,-108 447.899,-108 447.899,-144"/>
<text text-anchor="middle" x="407.901" y="-121.8" font-family="Times,serif" font-size="14.00">level &gt;= 70</text>
</g>
<!-- 532460899&#45;&gt;1415022266 -->
<g id="edge8" class="edge"><title>532460899:s&#45;&gt;1415022266:n</title>
<path fill="none" stroke="black" d="M430.901,-216C430.901,-186.081 412.657,-178.99 408.667,-154.065"/>
<polygon fill="black" stroke="black" points="412.149,-153.706 407.901,-144 405.17,-154.237 412.149,-153.706"/>
</g>
<!-- 1415022266&#45;&gt;2111695855 -->
<g id="edge7" class="edge"><title>1415022266:s&#45;&gt;2111695855:n</title>
<path fill="none" stroke="black" d="M407.901,-108C407.901,-48.8514 300.228,-92.8596 287.189,-46.2027"/>
<polygon fill="black" stroke="black" points="290.626,-45.4831 285.901,-36 283.681,-46.3596 290.626,-45.4831"/>
</g>
</g>
</svg>
